<?xml version="1.0" encoding="UTF-8" standalone="no"?>
<!DOCTYPE svg PUBLIC "-//W3C//DTD SVG 1.1//EN" "http://www.w3.org/Graphics/SVG/1.1/DTD/svg11.dtd">
<svg width="100%" height="100%" viewBox="0 0 2048 1535" version="1.1" xmlns="http://www.w3.org/2000/svg" xmlns:xlink="http://www.w3.org/1999/xlink" xml:space="preserve" xmlns:serif="http://www.serif.com/" style="fill-rule:evenodd;clip-rule:evenodd;stroke-linecap:round;stroke-linejoin:round;stroke-miterlimit:1.5;">
    <g transform="matrix(1,0,0,1,63.2898,-10.3542)">
        <g transform="matrix(1,0,0,1,-82,0)">
            <path d="M1544.75,639.998C1577.47,671.673 1572.57,706.831 1572.64,753.697C1572.72,810.985 1656.26,810.756 1655.53,753.697C1653.77,615.42 1655.53,615.409 1655.53,615.409L1734.9,615.409L1734.9,646.391C1799.66,590.508 1860.31,618.164 1886.74,648.001C1903.54,666.97 1907.7,693.561 1907.7,702.535L1907.7,856.351L1825.82,856.351L1825.82,704.794C1825.82,695.113 1806.96,673.523 1774.54,680.775C1752.64,685.673 1734.27,710.403 1734.27,719.732L1734.27,790.763C1734.27,822.313 1689.27,863.026 1616.47,863.026C1539.93,863.026 1493.85,832.703 1493.85,790.763L1492.32,739.106L1544.75,639.998Z" style="fill:rgb(255,137,58);"/>
            <path d="M1544.75,639.998L1492.32,739.106L1493.85,790.763C1493.85,832.703 1539.93,863.026 1616.47,863.026C1689.27,863.026 1734.27,822.313 1734.27,790.763L1734.27,719.732C1734.27,710.403 1752.64,685.673 1774.54,680.775C1806.96,673.523 1825.82,695.113 1825.82,704.794L1825.82,856.351L1907.7,856.351L1907.7,702.535C1907.7,693.561 1903.54,666.97 1886.74,648.001C1860.31,618.164 1799.66,590.508 1734.9,646.391L1734.9,615.409L1655.53,615.409C1655.53,615.409 1653.77,615.42 1655.53,753.697C1656.26,810.756 1572.72,810.985 1572.64,753.697C1572.57,706.831 1577.47,671.673 1544.75,639.998Z" style="fill:none;stroke:rgb(255,137,58);stroke-width:1px;"/>
        </g>
        <g id="y" transform="matrix(1,0,0,1,2,0)">
            <path d="M760.645,615.409L846.246,615.409L846.246,652.012C900.946,610.12 949.264,605.422 992.462,630.56L953.146,704.182C895.261,652.591 847.032,705.501 847.032,734.165L847.854,862.803L761.448,862.803L760.645,615.409Z" style="fill:rgb(255,137,58);"/>
            <path d="M760.645,615.409L846.246,615.409L846.246,652.012C900.946,610.12 949.264,605.422 992.462,630.56L953.146,704.182C895.261,652.591 847.032,705.501 847.032,734.165L847.854,862.803L761.448,862.803L760.645,615.409Z" style="fill:none;stroke:rgb(255,137,58);stroke-width:1px;"/>
        </g>
        <g id="u" transform="matrix(1,0,0,1,-82,0)">
            <path d="M1321.88,615.186L1401.16,615.186L1400.9,648.826C1443.13,606.242 1488.05,607.961 1531.39,629.584L1490.97,705.863C1470.09,648.669 1401.88,695.269 1401.74,721.069C1400.94,862.801 1401.74,862.803 1401.74,862.803L1322.49,862.803L1321.88,615.186Z" style="fill:rgb(255,137,58);"/>
            <path d="M1321.88,615.186L1401.16,615.186L1400.9,648.826C1443.13,606.242 1488.05,607.961 1531.39,629.584L1490.97,705.863C1470.09,648.669 1401.88,695.269 1401.74,721.069C1400.94,862.801 1401.74,862.803 1401.74,862.803L1322.49,862.803L1321.88,615.186Z" style="fill:none;stroke:rgb(255,137,58);stroke-width:1px;"/>
        </g>
        <g>
            <path d="M117.382,749.746C117.382,799.074 186.182,818.544 223.796,775.046L276.966,803.364C254.149,842.568 196.865,865.123 160.77,862.614C86.375,857.441 37.858,810.22 33.143,745.76C27.699,671.344 83.985,616.793 163.474,615.429C240.104,614.113 294.463,679.548 284.825,749.909L117.382,749.746ZM207.381,704.321C194.865,657.844 125.764,656.662 118.447,704.422L207.381,704.321Z" style="fill:rgb(255,137,58);"/>
            <g>
                <path d="M117.382,749.746L284.825,749.909C294.463,679.548 240.104,614.113 163.474,615.429C83.985,616.793 27.699,671.344 33.143,745.76C37.858,810.22 86.375,857.441 160.77,862.614C196.865,865.123 254.149,842.568 276.966,803.364L223.796,775.046C186.182,818.544 117.382,799.074 117.382,749.746Z" style="fill:none;stroke:rgb(255,137,58);stroke-width:1px;"/>
                <path d="M207.381,704.321C194.865,657.844 125.764,656.662 118.447,704.422L207.381,704.321Z" style="fill:none;stroke:rgb(255,137,58);stroke-width:1px;"/>
            </g>
        </g>
        <g transform="matrix(1,0,0,1,474.713,1.13687e-13)">
            <path d="M117.382,749.746C117.382,799.074 186.182,818.544 223.796,775.046L276.966,803.364C254.149,842.568 196.865,865.123 160.77,862.614C86.375,857.441 37.858,810.22 33.143,745.76C27.699,671.344 83.985,616.793 163.474,615.429C240.104,614.113 294.463,679.548 284.825,749.909L117.382,749.746ZM207.381,704.321C194.865,657.844 125.764,656.662 118.447,704.422L207.381,704.321Z" style="fill:rgb(255,137,58);"/>
            <g>
                <path d="M117.382,749.746L284.825,749.909C294.463,679.548 240.104,614.113 163.474,615.429C83.985,616.793 27.699,671.344 33.143,745.76C37.858,810.22 86.375,857.441 160.77,862.614C196.865,865.123 254.149,842.568 276.966,803.364L223.796,775.046C186.182,818.544 117.382,799.074 117.382,749.746Z" style="fill:none;stroke:rgb(255,137,58);stroke-width:1px;"/>
                <path d="M207.381,704.321C194.865,657.844 125.764,656.662 118.447,704.422L207.381,704.321Z" style="fill:none;stroke:rgb(255,137,58);stroke-width:1px;"/>
            </g>
        </g>
        <g>
            <path d="M239.883,615.409L337.627,615.409L399.047,745.244L457.577,615.409L552.665,615.409L422.007,862.803L373.636,862.803L239.883,615.409Z" style="fill:rgb(255,137,58);"/>
            <path d="M239.883,615.409L337.627,615.409L399.047,745.244L457.577,615.409L552.665,615.409L422.007,862.803L373.636,862.803L239.883,615.409Z" style="fill:none;stroke:rgb(255,137,58);stroke-width:1px;"/>
        </g>
        <g transform="matrix(1,0,0,1,2,0)">
            <path d="M1006.34,640.58C1015.11,648.869 1023.46,658.303 1031.07,669.821L1074.97,741.191L1141.3,615.409L1235.48,615.409L1043.55,982.647L947.836,982.437L1029.68,828.816C1008.93,790.336 988.384,751.642 965.192,715.633L1006.34,640.58Z" style="fill:rgb(255,137,58);"/>
            <path d="M1006.34,640.58C1015.11,648.869 1023.46,658.303 1031.07,669.821L1074.97,741.191L1141.3,615.409L1235.48,615.409L1043.55,982.647L947.836,982.437L1029.68,828.816C1008.93,790.336 988.384,751.642 965.192,715.633L1006.34,640.58Z" style="fill:none;stroke:rgb(255,137,58);stroke-width:1px;"/>
        </g>
    </g>
</svg>
